 <svg version="1.0" xmlns="http://www.w3.org/2000/svg" width="700.000000pt" height="700.000000pt" viewBox="0 0 700.000000 700.000000" preserveAspectRatio="xMidYMid meet">
<metadata>
Created by potrace 1.12, written by Peter Selinger 2001-2015
</metadata>
<g transform="translate(0.000000,700.000000) scale(0.100000,-0.100000)" fill="#000000" stroke="none">
<path d="M0 5815 c0 -196 1 -205 19 -205 16 0 242 -187 386 -319 38 -35 435
-379 495 -429 24 -20 56 -48 70 -62 33 -34 407 -359 445 -389 29 -22 113 -97
213 -190 26 -24 80 -71 121 -105 111 -92 392 -335 422 -365 14 -14 46 -43 70
-63 24 -21 209 -180 411 -355 429 -371 420 -364 478 -393 24 -12 56 -31 70
-40 29 -21 205 -60 269 -60 65 0 242 39 276 61 17 10 44 25 61 34 18 8 45 25
60 38 16 13 43 32 61 43 29 18 113 89 204 174 77 71 106 97 198 175 221 189
338 290 362 314 15 14 47 44 73 66 26 22 62 54 79 70 18 17 55 48 82 70 61 50
360 309 400 346 64 60 763 667 778 675 16 10 141 121 191 170 35 35 314 277
427 371 41 33 105 91 143 127 l70 65 4 165 c4 142 2 169 -12 191 l-16 25
-3455 0 -3455 0 0 -205z"></path>
<path d="M6874 5233 c-3 -10 -8 -23 -12 -30 -8 -12 -403 -359 -438 -383 -25
-18 -144 -122 -183 -161 -29 -29 -169 -151 -246 -214 -95 -79 -310 -267 -322
-283 -7 -8 -23 -23 -37 -31 -13 -9 -52 -42 -87 -73 -74 -67 -540 -472 -617
-537 -28 -24 -52 -50 -52 -58 0 -23 40 -93 53 -93 7 0 33 -17 59 -37 25 -21
69 -56 98 -78 29 -22 82 -65 119 -95 36 -31 102 -82 146 -115 44 -33 110 -84
147 -115 66 -54 116 -94 212 -167 46 -37 108 -86 171 -138 89 -73 130 -105
137 -105 6 0 55 -38 133 -105 61 -51 105 -87 134 -108 16 -12 55 -42 87 -67
31 -25 72 -56 90 -70 18 -14 58 -45 90 -70 74 -58 108 -85 180 -140 33 -24 81
-66 108 -94 56 -57 75 -55 89 10 4 21 6 782 5 1690 -3 1738 -2 1684 -45 1684
-7 0 -16 -8 -19 -17z"></path>
<path d="M0 3530 l0 -1710 21 0 c12 0 38 15 59 33 20 17 61 50 90 72 29 22 71
55 94 73 22 18 63 49 89 70 26 20 68 53 92 72 25 19 65 51 90 70 42 33 98 77
170 136 73 59 126 102 175 139 29 22 71 55 94 73 39 31 72 57 176 138 121 94
146 114 219 174 43 36 102 83 131 105 78 60 137 106 186 145 24 19 64 51 89
70 25 19 66 52 91 73 25 20 48 37 52 37 4 0 45 36 91 80 56 53 81 84 78 95 -4
8 -14 15 -22 15 -9 0 -39 19 -67 43 -99 83 -224 191 -253 218 -111 103 -203
184 -335 295 -93 78 -312 269 -380 331 -36 32 -199 171 -250 213 -24 19 -57
49 -74 66 -42 41 -316 279 -396 343 -72 58 -198 171 -238 214 -14 15 -36 27
-49 27 l-23 0 0 -1710z"></path>
<path d="M2284 3223 c-11 -2 -41 -21 -66 -41 -25 -20 -67 -53 -93 -72 -42 -32
-68 -52 -178 -143 -77 -64 -102 -83 -127 -99 -14 -8 -59 -43 -100 -77 -41 -34
-97 -78 -123 -99 -26 -20 -68 -53 -92 -72 -25 -19 -64 -50 -87 -68 -24 -18
-77 -61 -119 -95 -42 -34 -100 -80 -129 -102 -29 -22 -72 -56 -95 -75 -23 -19
-66 -53 -95 -75 -29 -22 -69 -53 -90 -70 -21 -16 -61 -48 -90 -70 -29 -22 -72
-56 -95 -75 -23 -19 -60 -48 -81 -65 -20 -16 -51 -42 -68 -56 -17 -14 -47 -36
-66 -49 -19 -13 -51 -37 -70 -52 -61 -50 -126 -103 -227 -184 -21 -17 -51 -39
-68 -50 -16 -10 -39 -29 -51 -41 -12 -12 -34 -25 -48 -29 l-26 -6 0 -209 0
-209 3338 -1 c1835 0 3385 -2 3444 -4 158 -6 153 -13 153 212 0 101 -4 185
-10 194 -11 18 -74 72 -155 134 -29 22 -69 54 -90 70 -21 17 -61 48 -91 70
-29 22 -64 52 -78 66 -14 14 -37 33 -51 42 -14 9 -47 35 -75 57 -27 22 -69 54
-93 70 -23 17 -53 41 -66 53 -14 12 -45 38 -70 57 -26 19 -66 51 -90 70 -24
19 -67 53 -96 75 -53 40 -118 92 -155 124 -11 9 -41 31 -65 49 -25 17 -70 52
-100 77 -30 25 -70 55 -87 66 -18 12 -33 24 -33 28 0 4 -19 21 -42 38 -64 46
-220 165 -247 188 -67 56 -113 94 -161 130 -29 22 -69 54 -90 70 -21 17 -61
48 -90 70 -29 22 -65 50 -79 62 -14 13 -44 36 -66 53 -22 16 -52 39 -67 51
-48 40 -81 23 -251 -124 -84 -73 -165 -143 -182 -156 -16 -12 -55 -46 -86 -74
-85 -78 -250 -197 -275 -197 -6 0 -36 -13 -66 -29 -60 -32 -253 -71 -352 -71
-95 0 -305 39 -350 65 -23 12 -58 28 -78 34 -20 7 -42 19 -49 27 -7 9 -31 25
-53 36 -23 12 -121 91 -220 177 -98 86 -202 174 -230 197 -28 22 -69 57 -91
78 -59 56 -68 60 -121 49z"></path>
</g>
</svg>