 <svg version="1.0" xmlns="http://www.w3.org/2000/svg" width="700.000000pt" height="700.000000pt" viewBox="0 0 700.000000 700.000000" preserveAspectRatio="xMidYMid meet">
<metadata>
Created by potrace 1.12, written by Peter Selinger 2001-2015
</metadata>
<g transform="translate(0.000000,700.000000) scale(0.100000,-0.100000)" fill="#000000" stroke="none">
<path d="M1480 6566 c-73 -28 -169 -76 -175 -86 -4 -6 -26 -23 -50 -38 -126
-79 -543 -461 -637 -584 -29 -38 -65 -84 -80 -102 -14 -17 -45 -68 -68 -111
-35 -67 -42 -92 -47 -155 -7 -97 13 -278 37 -339 10 -27 23 -83 29 -126 6 -43
22 -102 35 -129 13 -28 29 -73 35 -100 7 -26 25 -74 40 -105 16 -31 32 -72 36
-91 4 -19 18 -50 31 -70 13 -19 30 -55 39 -79 8 -24 21 -51 28 -59 12 -15 51
-88 105 -197 16 -33 36 -66 44 -73 9 -7 22 -27 29 -45 7 -18 25 -48 41 -67 15
-19 28 -40 28 -47 0 -7 13 -27 29 -45 15 -18 36 -49 46 -68 10 -19 30 -49 44
-67 36 -44 79 -102 102 -138 31 -48 65 -97 99 -140 17 -22 45 -59 63 -82 101
-131 242 -303 280 -343 13 -14 107 -119 208 -235 231 -263 657 -689 927 -926
114 -100 218 -193 232 -206 58 -54 104 -92 201 -168 56 -44 121 -96 145 -115
24 -19 60 -48 81 -63 99 -73 210 -155 242 -180 20 -15 49 -35 65 -45 15 -9 42
-27 60 -39 17 -12 49 -32 71 -44 22 -12 55 -35 73 -50 18 -16 38 -29 46 -29 7
0 30 -13 52 -30 21 -16 44 -30 50 -30 7 0 34 -15 60 -33 27 -18 70 -41 96 -51
25 -9 52 -23 58 -31 7 -8 37 -24 68 -35 30 -12 67 -29 82 -40 14 -10 39 -22
56 -26 16 -4 54 -20 84 -35 30 -15 77 -33 103 -39 27 -6 70 -21 97 -35 26 -13
75 -29 108 -34 33 -5 98 -21 144 -36 163 -52 465 -54 528 -5 14 11 41 28 60
38 76 37 158 105 321 267 124 122 163 164 229 245 19 24 51 63 70 86 19 23 53
65 75 94 22 28 51 63 64 77 12 14 41 60 62 101 31 57 42 93 50 156 23 180 -25
308 -145 388 -27 18 -68 45 -90 61 -23 15 -54 35 -69 45 -16 9 -52 34 -80 54
-28 21 -55 38 -60 38 -5 0 -27 16 -50 35 -22 19 -45 35 -51 35 -6 0 -31 16
-55 35 -24 19 -48 35 -54 35 -6 0 -25 11 -43 25 -58 45 -164 115 -173 115 -4
0 -16 9 -27 21 -10 12 -39 32 -64 45 -25 14 -61 36 -80 49 -19 13 -55 38 -80
55 -25 16 -61 41 -80 55 -19 13 -55 36 -80 50 -25 14 -57 35 -72 46 -15 13
-63 29 -115 40 -83 18 -93 18 -183 3 -100 -17 -205 -62 -370 -160 -41 -24 -97
-55 -125 -70 -103 -53 -155 -82 -181 -103 -39 -31 -93 -28 -131 7 -17 15 -59
48 -94 74 -106 78 -263 210 -330 277 -14 14 -63 60 -109 101 -108 97 -486 473
-618 615 -56 61 -117 126 -134 145 -56 59 -171 195 -213 250 -22 29 -54 69
-71 89 -17 20 -39 50 -48 66 -9 17 -22 37 -28 47 -10 13 -5 30 22 90 18 40 41
82 51 93 10 11 27 43 39 70 12 28 28 57 36 66 16 17 58 94 99 179 15 30 33 62
42 72 19 21 73 207 80 273 4 40 -2 67 -30 142 -19 50 -44 104 -56 120 -36 45
-69 95 -92 138 -12 22 -35 55 -50 73 -16 18 -29 36 -29 41 0 4 -16 28 -35 52
-19 24 -35 49 -35 56 0 6 -12 26 -27 44 -16 18 -39 51 -53 74 -54 90 -66 109
-97 147 -18 22 -33 45 -33 51 0 7 -15 31 -33 54 -17 22 -40 54 -50 70 -9 15
-35 55 -57 88 -22 33 -48 73 -58 88 -9 16 -30 45 -45 65 -16 21 -35 51 -43 67
-28 60 -91 125 -159 167 -69 41 -72 42 -175 45 -73 2 -116 -1 -140 -11z"></path>
</g>
</svg>