 <svg version="1.0" xmlns="http://www.w3.org/2000/svg" width="700.000000pt" height="700.000000pt" viewBox="0 0 700.000000 700.000000" preserveAspectRatio="xMidYMid meet">
<metadata>
Created by potrace 1.12, written by Peter Selinger 2001-2015
</metadata>
<g transform="translate(0.000000,700.000000) scale(0.100000,-0.100000)" fill="#000000" stroke="none">
<path d="M2267 6976 c-17 -25 -63 -39 -167 -52 -30 -3 -81 -17 -112 -30 -32
-13 -92 -29 -135 -35 -42 -6 -106 -21 -141 -35 -99 -37 -249 -56 -335 -43
-123 19 -219 8 -316 -35 -150 -69 -236 -154 -313 -313 l-43 -88 0 -140 c0
-123 4 -151 28 -230 14 -49 31 -128 36 -175 5 -47 15 -107 22 -133 6 -26 9
-64 6 -85 -20 -125 -48 -254 -65 -298 -12 -28 -26 -88 -32 -133 -6 -45 -22
-110 -35 -144 -13 -35 -28 -99 -34 -143 -7 -43 -23 -112 -37 -153 -36 -103
-35 -219 1 -322 14 -41 30 -105 36 -144 6 -38 22 -99 35 -135 13 -36 28 -99
35 -140 6 -41 20 -97 31 -125 28 -72 62 -249 62 -325 0 -80 -35 -259 -62 -320
-11 -25 -26 -83 -32 -130 -6 -46 -22 -109 -34 -140 -13 -30 -29 -93 -36 -140
-7 -47 -24 -112 -37 -145 -23 -54 -25 -69 -21 -170 4 -85 10 -120 26 -156 12
-26 27 -81 33 -123 5 -42 21 -105 34 -140 13 -36 31 -105 39 -154 7 -49 21
-103 30 -121 14 -26 45 -163 63 -278 3 -17 0 -54 -6 -82 -6 -28 -16 -93 -21
-144 -6 -50 -23 -135 -38 -187 -23 -84 -26 -113 -27 -250 l0 -155 42 -83 c23
-45 55 -99 73 -120 53 -63 114 -122 134 -128 11 -4 40 -19 65 -34 65 -40 91
-43 331 -44 207 -2 217 -3 280 -28 37 -14 104 -32 150 -38 47 -7 110 -23 140
-35 30 -13 89 -28 130 -34 41 -7 109 -24 150 -39 71 -26 84 -27 255 -27 174 0
182 1 243 27 35 15 100 32 145 38 45 7 106 22 137 35 30 13 91 28 135 35 44 6
120 25 170 42 84 29 96 30 205 26 94 -4 126 -9 178 -31 34 -14 96 -31 137 -37
42 -6 106 -22 143 -35 37 -13 103 -28 147 -35 44 -7 105 -22 135 -35 122 -51
378 -51 499 0 31 12 92 28 136 35 44 7 108 22 141 35 34 13 97 29 139 35 42 6
107 24 144 38 64 26 73 27 286 27 121 1 235 5 254 9 49 12 158 73 209 117 55
47 96 104 145 199 38 73 40 79 44 197 6 127 -4 213 -37 319 -10 33 -23 105
-30 160 -6 54 -16 116 -21 136 -12 46 20 250 56 353 13 39 29 105 35 149 7 43
22 106 35 140 13 34 28 96 34 137 5 41 22 106 36 144 25 64 26 79 23 185 -4
89 -9 125 -25 160 -12 25 -27 81 -33 125 -7 44 -22 105 -35 135 -13 30 -29 93
-35 140 -7 47 -21 105 -32 130 -26 58 -61 240 -61 310 0 74 30 222 58 290 13
30 28 88 34 128 6 41 22 99 35 130 13 31 29 91 36 132 7 41 24 102 38 135 25
56 27 71 26 205 0 132 -2 152 -26 220 -15 41 -34 116 -42 165 -7 50 -23 113
-34 141 -11 28 -26 89 -33 135 -6 46 -22 113 -35 148 -55 147 -54 368 1 532
35 103 52 286 37 414 -9 80 -16 104 -41 142 -17 26 -31 52 -31 59 0 24 -104
134 -165 174 -69 45 -214 90 -290 90 -24 0 -74 -7 -112 -16 -76 -18 -124 -13
-191 16 -25 11 -72 24 -106 30 -34 5 -89 21 -122 34 -34 14 -92 30 -130 37
-38 6 -94 22 -124 34 -30 13 -89 28 -130 35 -60 10 -79 18 -101 41 l-27 29
-185 0 c-172 0 -186 -1 -192 -18 -8 -26 -44 -41 -128 -52 -40 -6 -106 -21
-147 -35 -41 -13 -114 -31 -162 -39 -48 -8 -101 -22 -119 -32 -18 -9 -83 -25
-144 -35 -104 -18 -116 -18 -215 -3 -58 9 -130 26 -160 39 -30 12 -92 28 -137
34 -45 7 -108 22 -140 35 -32 13 -98 29 -148 36 -76 11 -93 17 -118 41 l-29
29 -178 0 c-176 0 -178 0 -193 -24z m3112 -961 c16 -8 31 -22 35 -30 3 -9 6
-1084 6 -2388 -1 -1849 -3 -2375 -13 -2388 -7 -9 -22 -21 -34 -27 -27 -15
-123 -16 -123 -2 0 6 -11 10 -25 10 -14 0 -25 -4 -25 -10 0 -16 -3522 -14
-3538 2 -9 9 -15 9 -24 0 -21 -21 -65 -14 -87 14 l-21 27 0 2381 c0 2487 -1
2404 40 2419 8 3 862 6 1898 6 1634 1 1887 -1 1911 -14z"></path>
<path d="M3185 5305 c-107 -30 -231 -77 -250 -94 -11 -10 -33 -26 -50 -34 -75
-38 -193 -172 -220 -248 -8 -21 -26 -59 -40 -83 -21 -36 -29 -72 -46 -212 -13
-105 -18 -192 -14 -229 3 -33 12 -130 20 -216 9 -89 24 -185 36 -223 l20 -68
-25 -36 c-14 -21 -32 -65 -41 -100 -15 -59 -15 -68 4 -164 12 -55 21 -103 21
-105 0 -3 29 -35 65 -73 67 -69 82 -96 130 -246 12 -39 34 -88 48 -110 14 -21
29 -51 32 -66 4 -14 20 -38 36 -52 55 -50 62 -81 55 -276 -7 -240 -15 -269
-85 -344 -31 -32 -79 -74 -108 -92 -28 -19 -54 -38 -57 -43 -4 -5 -19 -12 -35
-16 -16 -3 -49 -19 -74 -35 -26 -16 -65 -34 -89 -41 -24 -6 -61 -22 -83 -34
-22 -13 -60 -29 -85 -35 -25 -6 -63 -22 -85 -35 -22 -12 -65 -30 -96 -39 -31
-9 -62 -22 -68 -30 -7 -8 -33 -23 -58 -32 -68 -26 -191 -111 -214 -147 -17
-28 -19 -47 -17 -144 2 -87 7 -116 19 -128 15 -15 160 -17 1640 -17 l1624 0
18 23 c16 20 18 38 15 131 l-3 108 -45 41 c-25 22 -58 46 -75 54 -16 7 -45 25
-64 39 -19 14 -50 31 -69 37 -19 6 -50 22 -69 35 -18 12 -48 26 -66 29 -18 4
-54 20 -82 35 -27 15 -75 35 -106 44 -31 9 -62 23 -69 31 -7 8 -38 22 -69 31
-31 9 -68 25 -82 35 -15 10 -46 28 -70 39 -102 48 -250 177 -269 235 -15 44
-29 213 -30 335 0 111 17 169 61 217 27 28 86 144 109 213 49 147 67 181 121
238 77 80 76 77 99 187 26 116 22 161 -22 243 -30 56 -30 57 -14 102 8 25 22
92 31 150 8 58 22 130 31 160 20 74 29 288 15 370 -17 103 -67 257 -92 289
-13 15 -31 42 -40 58 -15 27 -112 109 -155 130 -11 6 -45 15 -77 22 -46 10
-71 24 -120 65 -34 29 -96 71 -136 92 l-75 39 -230 2 c-174 2 -243 -1 -281
-12z"></path>
</g>
</svg>