 <svg version="1.0" xmlns="http://www.w3.org/2000/svg" width="700.000000pt" height="700.000000pt" viewBox="0 0 700.000000 700.000000" preserveAspectRatio="xMidYMid meet">
<metadata>
Created by potrace 1.12, written by Peter Selinger 2001-2015
</metadata>
<g transform="translate(0.000000,700.000000) scale(0.100000,-0.100000)" fill="#000000" stroke="none">
<path d="M4909 6986 c-20 -8 -67 -34 -105 -58 -38 -25 -94 -61 -125 -81 -69
-44 -101 -102 -107 -194 -4 -59 -2 -66 42 -140 42 -71 46 -83 46 -144 0 -72
14 -99 51 -99 11 0 23 -10 28 -23 5 -13 21 -37 35 -54 14 -16 30 -42 36 -57
14 -38 37 -43 86 -17 86 46 107 6 46 -86 -33 -48 -39 -64 -35 -95 4 -31 -1
-48 -28 -89 -38 -60 -47 -129 -48 -376 -1 -124 -4 -154 -17 -167 -22 -22 -37
-20 -69 10 -15 14 -38 29 -50 34 -12 5 -67 42 -122 84 -105 79 -150 134 -173
213 -16 52 -8 91 34 179 33 70 33 70 87 82 30 7 69 22 88 33 30 18 33 23 28
57 -3 20 -9 62 -13 92 -3 30 -11 60 -16 67 -5 6 -8 26 -6 44 2 23 -2 34 -17
43 -59 33 -107 70 -122 92 -14 22 -15 31 -4 59 16 45 -5 88 -57 114 -64 32
-112 35 -206 11 -82 -20 -87 -21 -115 -4 -26 15 -35 16 -71 5 -23 -7 -59 -10
-79 -6 -29 5 -44 1 -73 -18 -20 -14 -54 -28 -77 -32 -25 -4 -47 -15 -57 -28
-53 -77 -69 -110 -85 -174 -24 -101 -13 -139 58 -200 79 -68 80 -70 29 -146
-93 -139 -117 -274 -76 -440 28 -113 23 -136 -34 -193 -73 -74 -137 -68 -165
13 -13 37 -13 44 3 67 14 23 22 26 51 20 28 -5 35 -2 45 17 11 20 10 25 -14
45 -79 69 -184 21 -216 -98 -26 -93 74 -197 190 -198 43 0 103 24 172 68 21
13 30 14 39 5 19 -19 40 -112 46 -203 5 -82 4 -87 -21 -117 -50 -59 -132 -64
-157 -9 -15 32 4 65 41 73 37 7 54 26 45 52 -24 76 -175 -11 -175 -101 0 -125
138 -185 256 -112 58 35 90 87 99 160 8 67 18 76 71 62 45 -12 71 -7 80 17 9
22 -10 41 -76 76 -32 17 -68 41 -79 53 -46 49 -141 353 -141 451 0 60 10 78
40 73 19 -2 26 -14 40 -64 18 -66 49 -117 83 -136 12 -7 47 -15 77 -18 l55 -5
1 -75 c0 -67 5 -84 43 -165 63 -133 127 -302 166 -441 38 -135 43 -175 20
-194 -8 -7 -15 -23 -15 -37 0 -13 -7 -38 -16 -55 -9 -16 -13 -40 -10 -53 4
-15 -1 -31 -13 -46 -17 -21 -22 -22 -45 -11 -15 7 -36 12 -46 12 -26 0 -54
-43 -45 -70 5 -15 0 -28 -20 -46 -23 -21 -25 -29 -20 -67 8 -55 -13 -89 -44
-69 -51 30 -87 4 -76 -56 5 -30 2 -41 -14 -56 -13 -12 -21 -37 -26 -78 -7 -56
-18 -77 -152 -287 -188 -293 -373 -569 -503 -751 -326 -457 -404 -523 -670
-575 -185 -35 -328 -51 -348 -39 -32 20 -93 136 -113 212 -50 195 7 408 146
547 107 107 251 160 367 136 99 -21 184 -96 216 -190 29 -82 5 -198 -49 -248
-70 -64 -218 -90 -276 -47 -39 29 -61 94 -46 135 26 68 -27 92 -79 37 -39 -42
-48 -67 -48 -135 0 -199 227 -289 421 -167 44 27 99 101 137 180 23 51 27 71
27 154 0 82 -4 103 -26 151 -36 76 -86 129 -161 170 -61 33 -66 34 -179 34
l-115 0 -85 -42 c-194 -96 -307 -258 -341 -487 -14 -100 -1 -208 38 -316 30
-85 31 -115 1 -133 -28 -18 -256 -40 -272 -27 -7 5 -17 27 -23 49 -17 56 -83
118 -145 136 -105 31 -199 11 -271 -60 -54 -52 -84 -109 -100 -189 l-12 -61
-95 -50 c-158 -84 -251 -159 -315 -255 -16 -25 -37 -46 -46 -48 -21 -4 -84 52
-105 92 -9 17 -21 51 -28 76 -10 40 -14 45 -41 45 -27 0 -29 -3 -32 -41 -4
-58 28 -123 97 -198 l60 -65 -5 -113 c-10 -189 38 -330 151 -444 83 -84 159
-114 288 -114 84 0 99 3 163 34 81 39 149 107 197 201 28 53 32 69 32 145 0
98 -17 139 -68 170 -64 40 -143 15 -135 -42 3 -25 42 -38 61 -19 13 13 47 -14
47 -39 0 -32 -52 -119 -95 -159 -74 -68 -138 -95 -225 -96 -61 0 -86 5 -132
27 -68 32 -137 99 -168 165 -28 59 -38 185 -18 223 13 25 15 25 143 26 150 0
246 21 371 79 42 19 83 35 90 35 8 0 35 -13 62 -30 63 -38 164 -76 244 -91 35
-7 146 -15 248 -18 175 -6 185 -7 188 -26 2 -15 -47 -70 -180 -202 -191 -190
-260 -250 -429 -379 -56 -42 -134 -104 -173 -138 -135 -117 -255 -211 -309
-244 -52 -32 -56 -32 -102 -21 -112 28 -332 -7 -435 -70 -56 -34 -92 -28 -134
20 -19 23 -42 62 -50 87 -22 64 -20 176 3 229 41 90 146 173 220 173 44 0 90
-26 97 -55 8 -34 -18 -73 -52 -77 -35 -4 -53 -31 -38 -56 8 -12 24 -17 53 -16
108 2 159 149 84 242 -45 55 -85 75 -167 80 -184 11 -332 -127 -344 -318 -12
-203 94 -363 311 -470 147 -72 229 -91 424 -97 162 -5 223 0 369 34 l71 16 59
-40 c272 -185 552 -220 883 -110 93 30 95 30 125 13 240 -141 401 -183 651
-173 159 7 223 21 344 78 46 21 90 39 97 39 7 0 49 -22 94 -49 145 -88 318
-129 499 -118 133 9 237 37 368 102 61 30 115 55 120 55 4 0 58 -22 118 -50
128 -57 223 -80 338 -80 167 0 321 41 500 132 l98 50 47 -20 c124 -53 208 -62
382 -42 121 14 233 44 319 86 127 63 271 229 271 314 0 17 -13 62 -30 100 -39
89 -38 114 4 156 28 28 42 34 76 34 57 0 104 24 126 65 17 32 17 36 2 69 -32
66 -151 156 -475 360 -236 148 -352 249 -393 341 -47 102 -79 271 -110 575
-17 162 -41 281 -94 464 -26 87 -50 188 -55 225 -18 125 -32 476 -29 686 l3
210 80 41 c73 37 80 43 83 73 7 69 -33 213 -128 471 -48 129 -59 170 -64 245
-8 98 -14 64 110 625 65 299 79 444 50 543 -15 53 -21 60 -67 85 -28 15 -72
41 -97 57 -26 17 -83 50 -126 75 -75 42 -82 49 -119 118 -25 47 -48 77 -63 83
-55 20 -59 118 -9 229 41 91 44 138 15 233 -33 106 -129 215 -229 260 -57 25
-154 31 -202 13z m-59 -333 c14 -9 39 -28 55 -43 36 -32 122 -80 129 -72 3 3
6 17 6 32 0 43 36 82 73 78 48 -5 71 -45 70 -124 0 -60 2 -69 25 -89 16 -14
23 -28 19 -38 -9 -24 -22 -21 -62 15 -36 31 -36 32 -30 89 7 61 -5 99 -30 99
-11 0 -15 -11 -15 -37 0 -62 -10 -83 -36 -83 -35 0 -134 52 -189 100 -52 45
-78 49 -135 20 -47 -24 -90 -26 -90 -5 0 19 115 75 155 75 17 0 42 -7 55 -17z
m-805 -288 c14 -13 25 -36 25 -50 0 -15 9 -34 20 -43 30 -27 34 -64 10 -95
-12 -15 -29 -27 -39 -27 -10 0 -23 -14 -32 -32 -23 -54 -109 -65 -124 -17 -10
31 9 46 40 29 29 -15 35 -11 50 33 7 24 17 33 39 37 39 7 43 25 12 46 -20 12
-26 25 -26 50 0 41 -19 52 -53 30 -19 -13 -30 -14 -55 -5 -41 14 -67 5 -57
-19 12 -28 7 -53 -15 -77 -22 -23 -14 -40 12 -30 8 3 20 0 27 -8 9 -11 8 -17
-4 -27 -24 -20 -67 -15 -87 10 -23 28 -23 41 2 73 11 14 20 40 20 60 0 51 40
81 95 73 22 -3 47 -2 55 4 26 17 60 11 85 -15z m260 -75 c3 -5 -1 -23 -10 -39
-22 -44 -19 -60 25 -124 65 -96 65 -139 -1 -218 -44 -52 -46 -64 -22 -91 16
-17 16 -20 -1 -36 -16 -16 -19 -15 -43 12 -35 41 -27 84 27 142 54 58 54 92 0
167 -52 72 -58 102 -31 156 20 39 43 52 56 31z m-330 -41 c14 -42 -45 -66 -61
-24 -10 25 4 45 30 45 16 0 27 -7 31 -21z m1313 -57 c6 -20 -96 -114 -158
-145 -64 -32 -100 -35 -100 -9 0 13 17 25 56 42 33 13 80 45 113 76 55 52 80
62 89 36z m60 -124 c20 -20 15 -26 -40 -54 -29 -15 -83 -51 -120 -80 -38 -31
-77 -54 -90 -54 -29 0 -92 64 -84 85 9 23 44 18 62 -10 9 -14 21 -25 26 -25 6
0 31 18 56 41 40 35 156 108 173 109 3 0 10 -5 17 -12z m159 -77 c67 -42 48
-99 -41 -125 -65 -19 -100 -56 -110 -116 -5 -33 -19 -56 -65 -104 -78 -82 -97
-123 -133 -288 -36 -173 -83 -308 -153 -447 -68 -136 -168 -287 -194 -296 -32
-10 -120 12 -176 44 -63 36 -129 93 -273 233 -104 102 -131 143 -95 143 7 0
74 -59 150 -130 165 -156 204 -187 274 -220 88 -41 101 -37 158 49 109 161
198 361 240 536 11 47 29 126 41 176 26 109 64 179 124 228 33 28 47 47 55 83
24 93 59 130 144 154 57 15 45 49 -19 49 -28 0 -44 28 -23 41 23 14 62 10 96
-10z m-1399 -37 c35 -7 52 -60 55 -174 2 -89 0 -102 -19 -120 -25 -26 -42 -20
-75 29 -29 41 -72 59 -95 40 -18 -15 -17 -39 1 -63 22 -30 18 -63 -10 -82 -33
-22 -55 -15 -79 26 -34 56 -29 157 11 242 47 100 67 116 134 111 30 -2 64 -6
77 -9z m1209 -10 c4 -10 -14 -34 -55 -73 -45 -43 -63 -68 -72 -102 -7 -24 -21
-75 -32 -112 -20 -73 -350 -734 -376 -754 -31 -25 -59 -15 -103 40 -24 28 -92
103 -151 166 -74 78 -118 133 -139 176 -32 66 -35 108 -7 113 12 2 20 -8 28
-40 18 -65 44 -101 165 -228 60 -64 121 -133 135 -153 14 -20 30 -37 35 -37 6
0 90 159 188 353 132 261 183 371 196 427 24 99 38 125 104 188 59 55 74 62
84 36z m-263 -110 c3 -8 2 -23 -3 -32 -17 -35 -61 -171 -85 -265 -13 -54 -27
-101 -30 -104 -3 -3 -12 -3 -21 1 -14 5 -15 14 -10 49 10 60 70 264 94 320 20
47 44 61 55 31z m231 -386 c26 -30 27 -37 22 -108 -3 -55 -20 -122 -62 -250
-79 -242 -92 -265 -162 -296 -31 -14 -62 -23 -69 -20 -30 11 -12 37 41 61 63
27 62 26 127 215 45 131 88 285 88 316 0 12 -11 38 -25 58 -41 60 -7 80 40 24z
m389 -97 c3 -5 -10 -44 -29 -86 -46 -101 -82 -224 -139 -475 -26 -113 -55
-216 -65 -230 -19 -27 -64 -43 -481 -169 -262 -79 -364 -101 -382 -83 -18 18
-1 42 29 42 35 0 154 30 297 75 61 19 188 57 281 85 183 55 214 67 226 90 4 8
28 107 53 220 68 302 150 540 187 540 10 0 20 -4 23 -9z m-1034 -58 c0 -22
-55 -73 -79 -73 -32 0 -25 26 16 64 37 33 63 37 63 9z m-233 -535 c11 -13 30
-42 42 -65 27 -53 34 -57 71 -38 17 9 35 13 40 10 21 -13 8 -35 -30 -55 -36
-19 -43 -19 -68 -6 -15 8 -40 37 -55 65 -34 62 -47 70 -65 43 -16 -25 -42 -18
-42 11 0 53 69 76 107 35z m203 -177 c5 -11 10 -55 10 -98 0 -83 -12 -112 -37
-92 -14 12 -19 189 -6 202 11 12 22 8 33 -12z m-82 -33 c23 -23 11 -145 -15
-155 -23 -9 -26 3 -24 79 3 90 10 105 39 76z m-133 -133 c27 -27 34 -90 15
-141 -7 -19 -7 -36 2 -60 9 -26 9 -36 -1 -48 -9 -11 -10 -20 -2 -35 13 -23 14
-71 2 -89 -4 -7 -21 -16 -37 -21 -19 -5 -30 -15 -32 -29 -4 -25 -47 -62 -72
-62 -23 0 -67 36 -75 61 -4 11 -1 27 6 35 11 14 16 12 40 -17 23 -29 29 -31
43 -20 9 7 16 21 16 30 0 24 20 41 47 41 30 0 40 26 19 49 -19 21 -21 52 -4
69 9 9 7 16 -7 32 -18 19 -18 22 -2 56 22 44 23 113 2 120 -8 4 -33 -4 -56
-15 -32 -17 -44 -19 -55 -10 -19 16 -2 36 51 60 53 25 71 24 100 -6z m-118
-117 c15 -14 23 -33 23 -53 0 -34 -31 -75 -57 -75 -8 0 -31 -13 -50 -30 -25
-22 -44 -30 -71 -30 -45 0 -62 14 -62 51 0 43 28 47 43 7 9 -25 21 -23 59 10
18 16 45 32 61 36 31 7 38 45 12 66 -12 10 -13 16 -4 26 15 18 19 18 46 -8z
m691 -205 c142 -357 366 -1007 374 -1083 2 -19 -2 -25 -17 -25 -15 0 -24 11
-33 40 -175 543 -268 808 -391 1111 -34 83 -61 159 -61 168 0 9 8 16 19 16 16
0 36 -41 109 -227z m-799 198 c13 -24 -8 -55 -35 -49 -20 3 -30 29 -20 54 8
20 43 17 55 -5z m415 -57 c12 -11 14 -26 10 -53 -13 -83 55 -154 115 -120 46
26 36 79 -15 79 -18 0 -24 6 -24 22 0 36 38 68 82 68 43 0 54 -13 84 -97 15
-45 16 -57 4 -92 -30 -91 -110 -143 -197 -126 -106 20 -150 78 -168 222 -6 49
-5 55 23 83 34 33 62 38 86 14z m-276 -120 c4 -25 -19 -47 -41 -38 -22 8 -30
34 -16 51 17 20 53 12 57 -13z m-290 -36 c30 -30 -1 -73 -36 -51 -23 14 -25
29 -7 47 20 19 27 20 43 4z m124 -25 c37 -33 11 -103 -38 -103 -15 0 -27 -9
-36 -27 -11 -24 -20 -28 -60 -31 -40 -3 -52 1 -73 22 -14 14 -25 30 -25 36 0
21 30 22 56 1 35 -27 52 -27 64 3 11 29 42 48 64 40 21 -8 21 19 1 36 -8 7
-15 19 -15 26 0 19 40 18 62 -3z m318 -123 c12 -17 47 -48 78 -68 66 -44 83
-73 89 -156 10 -120 -62 -236 -145 -236 -79 0 -139 74 -112 139 12 30 50 54
67 43 6 -4 12 -16 14 -26 6 -28 35 -43 57 -30 30 19 27 68 -7 106 -27 30 -34
33 -86 33 -64 0 -77 12 -64 59 5 17 9 48 9 69 0 50 27 97 56 97 14 0 31 -12
44 -30z m457 -22 c5 -7 36 -86 67 -176 46 -127 56 -165 47 -176 -9 -11 -31
-13 -89 -9 -67 4 -82 1 -117 -19 -58 -34 -85 -80 -85 -144 0 -45 5 -59 30 -87
34 -39 77 -60 112 -55 18 2 23 9 23 33 0 25 -6 33 -37 47 -20 10 -42 27 -48
39 -16 29 5 76 43 95 63 33 134 13 184 -53 25 -32 28 -45 28 -112 0 -63 -4
-84 -25 -119 -82 -144 -330 -126 -419 30 -26 45 -31 63 -31 123 0 57 5 78 25
110 71 115 80 144 80 255 1 58 4 111 9 118 4 6 31 23 60 37 29 13 63 36 76 50
26 27 52 32 67 13z m-748 -69 c50 -57 55 -60 68 -43 7 10 13 30 13 44 0 32 23
66 38 56 28 -17 3 -128 -34 -152 -23 -16 -26 -15 -58 7 -40 28 -106 106 -106
123 0 14 9 26 19 26 4 0 31 -28 60 -61z m1206 5 c59 -31 86 -35 153 -18 69 17
97 9 72 -20 -31 -39 -158 -48 -220 -16 -50 26 -57 25 -152 -7 -60 -20 -81 -24
-90 -15 -18 18 6 36 87 65 83 31 110 32 150 11z m-1298 -34 c39 -115 -15 -250
-102 -250 -71 0 -112 83 -65 130 24 24 62 26 80 5 19 -23 4 -48 -24 -41 -29 7
-43 -9 -26 -29 22 -26 59 -18 80 18 22 35 27 117 10 162 -6 15 -7 31 -4 36 12
20 39 3 51 -31z m107 -102 c7 -12 2 -41 -17 -105 -30 -97 -35 -184 -13 -202
25 -21 79 -9 96 21 11 21 12 30 3 39 -10 10 -17 9 -32 -5 -20 -18 -51 -16 -51
2 0 19 42 62 61 62 80 0 97 -84 31 -152 -44 -47 -134 -30 -161 29 -18 40 -13
127 14 205 14 40 25 82 25 94 0 37 24 44 44 12z m-373 -126 c105 -70 126 -82
147 -82 43 0 60 -17 72 -75 6 -30 22 -68 36 -84 28 -33 81 -61 117 -61 13 0
30 -7 37 -15 10 -12 8 -21 -15 -51 -36 -48 -49 -51 -88 -21 -41 31 -102 57
-134 57 -39 0 -72 29 -84 74 -6 22 -20 56 -31 74 -21 34 -83 72 -116 72 -11 0
-30 8 -42 18 -20 16 -21 21 -10 43 19 36 52 69 69 69 9 0 28 -8 42 -18z m-24
-217 c34 -34 35 -38 30 -90 -7 -74 -33 -122 -80 -153 -37 -25 -49 -27 -137
-27 -76 0 -102 4 -124 18 -32 22 -31 25 26 113 50 76 70 85 106 51 38 -34 61
-40 88 -22 31 20 30 36 -1 65 -29 27 -31 42 -9 64 26 26 63 19 101 -19z m668
25 c22 -5 45 -16 51 -24 17 -23 24 -163 12 -221 -14 -63 -62 -115 -107 -115
-39 0 -98 24 -128 52 -29 27 -30 69 -2 94 21 19 21 18 40 -4 26 -33 63 -26 67
11 5 38 -21 74 -57 82 -44 9 -44 29 -3 85 40 54 52 58 127 40z m-418 -240 c18
-10 39 -33 48 -51 23 -43 30 -128 16 -172 -14 -41 -63 -87 -93 -87 -50 0 -106
60 -93 101 5 15 15 18 53 16 44 -2 47 0 50 25 7 60 -97 81 -148 30 -41 -41
-48 -90 -20 -147 23 -47 53 -73 110 -95 19 -7 41 -20 48 -28 15 -20 16 -114 0
-130 -7 -7 -43 -12 -89 -12 -68 0 -80 3 -93 21 -9 13 -13 33 -10 49 9 45 -15
111 -56 152 -33 33 -44 38 -83 38 -25 0 -57 -4 -72 -10 -33 -13 -57 -67 -46
-106 6 -24 13 -29 37 -29 23 0 30 5 32 25 8 54 39 64 77 25 19 -19 25 -35 25
-71 0 -39 -5 -51 -34 -80 -26 -26 -42 -34 -71 -34 -81 0 -133 49 -161 153 -17
64 -19 258 -3 274 8 8 42 10 109 6 126 -8 179 9 258 81 31 29 66 58 77 64 31
18 97 14 132 -8z m1140 2 c16 -10 24 -34 99 -279 52 -172 62 -217 53 -235 -6
-15 -45 -41 -102 -70 -113 -58 -166 -110 -267 -260 -88 -131 -122 -156 -187
-139 -58 16 -95 60 -100 118 -5 42 -1 53 22 81 32 38 73 43 93 11 11 -18 11
-24 -3 -39 -43 -47 13 -94 60 -50 45 42 39 98 -18 166 -15 18 -27 38 -27 46 0
8 21 34 46 58 49 48 74 94 93 178 15 61 47 92 96 92 45 0 81 -41 76 -87 -1 -8
-11 -11 -29 -7 -60 12 -68 -63 -11 -95 22 -12 31 -13 58 -1 92 38 79 203 -19
252 -47 24 -117 23 -158 -2 -42 -26 -67 -25 -105 2 -18 13 -50 23 -81 26 -63
5 -113 -25 -134 -79 -12 -31 -11 -41 2 -72 17 -43 58 -67 84 -50 25 15 26 42
2 68 -19 21 -20 24 -5 39 24 23 70 20 102 -8 24 -21 28 -31 28 -78 0 -45 -5
-61 -29 -92 -75 -99 -167 -101 -249 -6 -70 82 -84 215 -33 326 46 99 78 113
166 67 43 -22 67 -27 153 -30 96 -4 105 -2 157 24 37 19 68 46 94 81 39 52 50
59 73 44z m-896 -176 c24 -13 60 -27 79 -31 58 -12 71 -30 64 -89 -28 -236
-132 -366 -248 -311 -48 23 -66 50 -66 100 0 72 57 114 88 65 23 -38 72 -19
72 29 0 31 -37 71 -66 71 -40 0 -49 24 -31 83 8 28 18 64 21 80 8 34 29 35 87
3z m-936 -45 c3 -6 10 -47 16 -93 5 -46 17 -108 25 -138 9 -30 16 -57 15 -59
0 -2 -14 -6 -31 -8 -64 -7 -96 -46 -88 -109 3 -25 7 -29 33 -29 23 0 30 5 35
25 8 34 43 38 64 8 20 -28 20 -41 -1 -85 -37 -79 -122 -76 -197 8 -49 54 -106
159 -106 194 0 32 187 295 210 295 10 0 21 -4 25 -9z m2118 -276 c47 -110 145
-337 217 -505 145 -335 154 -359 123 -320 -153 191 -272 464 -412 946 -40 137
-32 123 72 -121z m-944 -83 c25 -26 64 -61 86 -79 l40 -31 -30 -57 c-25 -47
-30 -68 -30 -125 0 -60 4 -74 30 -111 37 -53 101 -87 180 -95 33 -4 66 -11 73
-17 16 -12 16 -161 1 -208 -15 -45 -45 -76 -84 -89 -44 -15 -78 0 -99 44 -27
57 0 118 39 86 7 -6 24 -10 37 -8 18 2 24 10 26 35 3 25 -2 35 -24 49 -61 40
-129 10 -160 -71 -27 -71 9 -158 83 -199 54 -30 56 -63 7 -106 -73 -64 -173
-91 -265 -71 -105 23 -158 93 -159 209 0 57 3 67 29 93 33 33 58 36 101 14 33
-17 49 -58 30 -80 -6 -7 -10 -26 -8 -42 7 -65 85 -20 94 54 8 64 -32 115 -124
160 -2 0 4 22 12 47 30 87 15 164 -41 227 -90 99 -218 116 -338 44 -93 -57
-112 -50 -164 59 -35 72 -39 86 -32 124 9 43 31 76 64 94 13 7 25 5 44 -7 22
-15 24 -22 19 -53 -6 -39 6 -62 35 -62 22 0 49 36 49 66 0 43 23 47 85 14 61
-32 118 -38 174 -19 60 21 106 -35 61 -76 -25 -23 -26 -51 -1 -65 32 -16 51
-12 83 20 27 28 30 36 25 76 -2 24 -16 62 -31 84 -14 22 -26 43 -26 47 0 17
40 73 52 73 6 0 32 -21 57 -48z m-1460 -35 c15 -19 49 -127 62 -201 14 -75 6
-137 -24 -190 -33 -58 -67 -79 -136 -84 -49 -4 -67 0 -101 19 -69 39 -89 103
-50 166 27 46 64 53 99 19 32 -31 42 -32 65 -7 22 24 8 63 -33 87 -17 10 -33
24 -36 32 -7 20 104 172 125 172 10 0 23 -6 29 -13z m530 -43 c14 -3 46 -1 69
4 38 9 46 8 63 -9 39 -39 14 -102 -45 -113 -91 -17 -139 -111 -102 -200 30
-73 127 -105 134 -44 3 21 -3 30 -26 42 -73 38 -47 126 36 126 27 0 45 -7 60
-23 25 -27 58 -99 67 -147 9 -49 -27 -141 -74 -190 -48 -50 -170 -109 -235
-112 -66 -4 -75 12 -52 85 14 46 15 62 6 98 -15 56 -59 99 -100 99 -62 0 -113
-51 -96 -95 7 -19 50 -19 66 0 19 22 39 18 50 -11 16 -40 12 -51 -26 -94 -45
-50 -95 -66 -150 -47 -45 14 -43 -11 -29 280 l8 179 26 -7 c76 -18 128 -17
169 4 48 25 91 90 99 152 5 37 8 40 31 34 13 -3 36 -8 51 -11z m1785 -3 c20
-22 56 -112 56 -140 0 -33 -23 -43 -75 -31 -90 20 -165 -42 -165 -136 0 -56
27 -87 73 -82 27 3 33 8 35 32 2 16 -1 33 -7 39 -15 15 -14 33 5 51 23 24 52
19 85 -13 53 -53 33 -158 -38 -205 -80 -53 -170 -52 -242 1 -106 81 -90 281
33 402 88 86 201 125 240 82z m-3821 -105 c39 -16 87 -70 87 -96 0 -26 -21
-35 -110 -49 -41 -6 -107 -20 -147 -30 -58 -15 -75 -16 -89 -6 -21 15 -14 51
23 106 52 78 152 110 236 75z m1091 -102 c21 -21 7 -46 -46 -81 -35 -24 -52
-28 -132 -31 -62 -2 -99 1 -116 10 -28 15 -33 46 -10 59 11 6 226 50 282 58 4
1 14 -6 22 -15z m-452 -101 c60 -50 152 -91 223 -99 58 -6 85 -18 85 -34 0
-10 -189 -237 -221 -267 -59 -53 -394 -75 -573 -38 -126 26 -226 70 -226 100
0 8 40 54 89 102 70 70 96 104 125 164 36 77 36 77 84 84 52 8 225 21 314 23
51 2 60 -1 100 -35z m2051 13 c18 -7 45 -28 60 -45 70 -84 27 -221 -69 -221
-49 0 -78 32 -70 78 6 41 -7 62 -40 62 -28 0 -54 -35 -54 -72 0 -47 19 -82 68
-125 l47 -42 6 -103 c6 -104 10 -117 67 -211 16 -27 16 -29 -2 -43 -11 -8 -31
-14 -44 -14 -34 0 -89 -58 -97 -103 -5 -27 -3 -44 9 -62 31 -47 84 -22 71 33
-11 51 40 73 85 36 24 -21 30 -34 30 -66 0 -56 -35 -115 -77 -129 -68 -22
-180 24 -224 93 -18 29 -19 42 -13 98 4 36 8 108 8 160 1 122 -21 178 -111
283 -39 45 -41 69 -8 113 14 18 40 65 59 106 34 75 94 143 151 172 37 20 105
20 148 2z m-2634 -40 c10 -11 9 -22 -5 -48 -24 -47 -167 -186 -200 -194 -33
-8 -58 19 -101 105 -40 80 -29 88 167 131 105 23 124 24 139 6z m1129 -85 c47
-58 123 -91 211 -91 38 0 81 4 95 10 63 23 69 -10 31 -160 -44 -175 -86 -237
-176 -261 -41 -11 -50 -10 -92 10 -76 37 -103 106 -63 165 24 38 45 43 66 17
25 -35 64 -25 68 16 5 47 -34 83 -88 83 -49 0 -98 -41 -133 -110 -13 -27 -28
-44 -37 -43 -50 9 -191 50 -201 60 -7 7 -8 17 -3 26 26 45 261 316 275 317 9
0 30 -18 47 -39z m2845 -54 c19 -35 58 -99 86 -142 28 -43 51 -86 51 -96 0 -9
-9 -28 -21 -43 -48 -60 -132 -75 -169 -29 -28 36 -22 57 18 61 24 2 36 10 45
29 10 22 8 28 -13 45 -34 28 -97 19 -128 -18 -20 -23 -23 -36 -20 -94 3 -77
-9 -100 -52 -100 -15 0 -47 -7 -71 -15 -53 -19 -62 -16 -93 34 -32 49 -86 70
-123 46 -39 -26 -26 -55 29 -69 37 -9 47 -48 24 -91 -52 -96 -187 -62 -250 62
-23 46 -21 60 24 148 30 60 40 90 40 128 0 90 28 111 91 65 60 -43 101 -58
162 -58 122 0 222 56 264 146 19 43 29 54 48 54 18 0 31 -14 58 -63z m-4383
28 c7 -8 25 -41 41 -72 15 -32 36 -71 46 -86 18 -28 18 -29 -4 -46 -11 -10
-57 -29 -100 -44 -174 -57 -353 -63 -353 -12 0 43 193 206 304 256 50 23 51
23 66 4z m2623 -296 c69 -72 107 -156 107 -239 0 -79 -22 -131 -80 -194 -49
-53 -113 -81 -164 -72 -104 20 -173 175 -99 223 22 15 25 14 47 -7 27 -24 53
-24 69 2 13 20 -4 57 -35 77 -29 18 -94 16 -123 -3 -14 -9 -38 -16 -55 -16
-24 0 -35 8 -56 39 -63 96 -187 93 -273 -5 -43 -48 -52 -76 -50 -145 1 -33 -3
-64 -10 -72 -7 -9 -36 -16 -74 -19 -83 -5 -144 -46 -181 -120 -43 -87 -30
-171 36 -221 90 -69 226 -23 216 74 -6 61 -69 65 -76 6 -6 -47 -86 -45 -112 3
-29 54 25 157 95 180 79 26 180 -42 209 -141 21 -69 20 -94 -5 -175 -18 -57
-30 -77 -82 -129 -106 -105 -199 -131 -332 -92 -37 10 -94 17 -150 17 -173 0
-245 45 -245 153 0 96 51 156 139 165 58 5 101 -24 101 -69 0 -29 -6 -33 -46
-30 -50 4 -58 -73 -9 -85 37 -9 74 3 106 36 52 52 35 154 -33 201 -18 12 -39
29 -45 37 -19 23 -16 66 5 85 10 9 29 38 43 64 21 41 24 62 24 147 1 115 6
121 69 85 32 -18 56 -24 106 -24 78 1 129 24 184 85 35 39 86 131 86 156 0 6
9 19 20 29 21 19 37 18 130 -10 42 -12 83 -15 170 -12 98 4 127 9 195 35 111
42 120 41 178 -19z m-1417 -92 c2 -7 -11 -30 -30 -50 -41 -44 -60 -96 -53
-145 7 -39 42 -82 67 -82 36 0 53 47 25 70 -23 19 -18 55 12 90 23 28 31 32
65 27 79 -11 118 -62 118 -157 0 -105 -50 -160 -166 -185 -95 -20 -160 -19
-230 5 -124 43 -179 92 -159 144 6 13 64 86 130 160 l120 136 48 0 c30 0 49
-5 53 -13z m3229 -79 c24 -19 27 -26 21 -65 -8 -61 -77 -201 -122 -247 -92
-95 -204 -100 -281 -13 -54 61 -57 147 -8 217 33 48 101 86 138 76 28 -7 36
-33 16 -53 -20 -20 -6 -58 22 -61 37 -4 63 30 69 91 4 42 10 54 30 64 38 19
84 16 115 -9z m297 -25 c26 -26 48 -54 48 -62 0 -7 -18 -34 -41 -58 -37 -40
-40 -48 -37 -91 3 -45 4 -47 33 -47 25 0 30 5 35 31 10 45 18 54 50 54 38 0
60 -32 60 -88 0 -93 -73 -164 -170 -164 -58 0 -98 20 -143 73 -68 78 -74 199
-15 295 73 121 105 131 180 57z m-2573 -29 c26 -33 26 -37 -1 -92 -27 -58 -17
-78 38 -74 62 4 79 -4 98 -47 10 -21 36 -56 57 -77 51 -50 50 -74 -3 -113 -82
-61 -117 -138 -103 -229 4 -26 8 -63 8 -82 l2 -35 -70 3 c-129 5 -137 13 -104
108 32 90 30 192 -5 274 -16 36 -39 92 -53 125 -14 33 -28 88 -31 122 -5 62
-4 63 35 103 51 50 99 55 132 14z m1471 -14 c5 0 32 -20 59 -44 52 -46 88 -62
160 -71 53 -6 81 -28 81 -64 1 -40 34 -105 79 -154 23 -24 41 -50 41 -56 0 -7
-14 -29 -31 -50 -23 -29 -30 -47 -27 -71 6 -63 67 -66 78 -4 4 23 11 30 33 32
43 5 57 -13 57 -74 0 -45 -5 -59 -31 -89 -58 -66 -163 -68 -254 -5 -65 44 -69
67 -29 155 51 112 15 232 -86 283 -110 55 -242 3 -264 -104 -14 -64 52 -153
93 -127 24 15 25 40 2 69 -27 34 -26 50 4 79 46 46 148 26 180 -35 40 -78 -10
-196 -98 -229 -63 -24 -163 -6 -225 39 -83 62 -103 197 -45 320 54 116 156
220 201 205 8 -3 18 -5 22 -5z m-302 -93 c17 -14 15 -38 -9 -99 -31 -80 -41
-154 -28 -218 30 -153 143 -239 328 -248 111 -5 126 -14 162 -95 46 -103 20
-250 -53 -312 -25 -21 -40 -25 -98 -25 -59 0 -73 4 -99 26 -54 45 -52 123 3
159 33 22 64 12 68 -22 2 -14 11 -31 21 -37 15 -9 22 -7 38 13 10 13 19 33 19
46 0 59 -87 108 -151 86 -47 -16 -77 -14 -116 10 -50 31 -137 23 -170 -16 -44
-51 -15 -150 35 -119 9 6 19 24 22 40 4 24 11 30 36 32 39 4 58 -18 58 -65 0
-43 -42 -86 -101 -103 -96 -27 -227 -22 -244 10 -97 191 -116 275 -84 381 18
59 55 109 81 109 74 0 110 -84 48 -112 -47 -21 -38 -78 11 -78 33 0 82 44 96
87 16 49 -1 100 -52 159 -45 52 -45 61 4 130 39 56 48 141 22 210 -25 65 -12
76 74 68 36 -4 72 -11 79 -17z m1855 -202 c183 -114 214 -136 300 -208 63 -54
70 -74 30 -83 -86 -19 -111 -28 -141 -50 -61 -47 -79 -125 -47 -214 19 -54 8
-70 -49 -70 -51 0 -66 13 -66 59 -1 51 -31 113 -75 149 -97 79 -282 66 -389
-28 -47 -42 -65 -34 -81 36 -6 27 -28 85 -48 129 -32 70 -34 82 -23 100 14 21
19 21 101 10 66 -9 119 6 191 55 69 47 104 51 139 15 30 -29 32 -66 5 -90 -18
-16 -23 -17 -46 -5 -53 29 -86 -31 -38 -69 94 -74 228 66 170 177 -19 36 -49
63 -100 87 -32 15 -42 26 -44 48 -4 29 12 57 32 57 6 0 87 -47 179 -105z
m-4348 0 c32 -7 92 -59 112 -99 21 -41 21 -125 -1 -158 -10 -15 -35 -34 -57
-42 -52 -21 -91 -6 -99 39 -4 23 -11 31 -31 33 -39 5 -54 -20 -41 -66 17 -56
52 -84 111 -90 122 -11 210 68 216 197 4 72 2 67 21 85 11 11 35 16 80 16 35
0 64 -2 64 -4 0 -2 3 -11 6 -19 3 -8 -8 -29 -26 -48 -77 -83 -94 -178 -51
-278 22 -53 22 -54 4 -79 -14 -19 -38 -30 -98 -44 -44 -10 -128 -34 -187 -53
-122 -40 -138 -41 -199 -20 -87 31 -142 110 -160 227 -15 99 5 206 50 272 37
53 117 114 174 131 40 12 51 12 112 0z m1935 -39 c31 -29 79 -65 108 -80 66
-33 79 -56 56 -99 -45 -87 -53 -107 -63 -177 -14 -91 -4 -155 38 -237 33 -66
60 -152 54 -170 -6 -17 -105 -17 -121 -1 -7 7 -12 27 -12 45 0 50 -35 109 -81
139 -34 21 -40 29 -34 47 72 223 55 350 -64 465 -27 26 -46 53 -44 60 6 16 73
62 92 62 8 0 40 -24 71 -54z m1658 -43 c24 -34 83 -151 130 -258 32 -72 36
-89 36 -170 0 -73 -4 -98 -21 -130 -42 -79 -107 -116 -207 -117 -121 -2 -186
67 -186 196 0 55 4 69 26 95 44 53 113 35 101 -26 -7 -35 8 -63 33 -63 27 0
50 38 50 82 0 45 -46 103 -89 113 -48 10 -58 32 -63 132 -3 50 -2 97 2 103 14
22 104 68 137 69 24 1 36 -6 51 -26z m-1869 -57 c40 -21 86 -77 106 -130 23
-61 17 -171 -15 -243 -34 -78 -152 -176 -193 -160 -19 7 -79 134 -75 156 2 8
24 20 51 27 60 15 93 37 117 77 25 40 25 82 1 127 -20 39 -51 49 -71 25 -11
-13 -11 -23 0 -55 16 -48 10 -64 -31 -85 -26 -14 -36 -15 -61 -4 -59 24 -87
114 -54 177 43 82 152 125 225 88z m-2161 -118 c7 -7 12 -42 12 -87 0 -94 22
-188 58 -253 26 -48 27 -49 8 -64 -11 -8 -31 -14 -44 -14 -13 0 -81 -11 -150
-25 l-127 -25 -105 43 c-123 50 -130 54 -130 72 0 18 433 365 456 365 5 0 15
-5 22 -12z m4657 -202 c37 -16 75 -67 75 -101 0 -44 -25 -62 -97 -68 -37 -3
-110 -16 -161 -27 -113 -27 -128 -21 -118 48 9 67 41 111 100 138 60 28 148
32 201 10z m-1048 -23 c35 -3 67 -11 72 -17 4 -6 13 -40 20 -76 7 -36 19 -89
28 -118 10 -34 13 -56 6 -63 -15 -15 -261 1 -267 17 -3 7 0 28 5 46 6 18 11
73 13 121 2 91 12 114 46 101 8 -3 43 -8 77 -11z m-1852 -34 c75 -14 124 -39
163 -83 66 -75 46 -189 -42 -241 -61 -36 -97 -33 -135 10 -56 64 -33 144 33
114 50 -23 80 43 34 75 -65 46 -170 -4 -183 -87 -10 -58 -21 -69 -64 -61 -64
11 -70 14 -96 69 -14 30 -25 57 -25 62 0 5 11 25 25 45 30 44 96 85 156 97 62
12 68 12 134 0z m-550 -88 c62 -22 115 -59 148 -104 31 -41 11 -57 -72 -57
-102 0 -285 -34 -399 -73 l-104 -36 -91 54 c-156 92 -169 102 -157 125 14 27
206 84 369 110 90 14 237 5 306 -19z m-1883 -55 c94 -18 227 -62 251 -83 47
-43 7 -69 -129 -83 -122 -12 -256 -3 -369 26 -100 26 -125 40 -125 68 0 69
193 106 372 72z m3002 -47 c14 -17 26 -38 26 -48 0 -29 -42 -58 -95 -66 -27
-4 -76 -15 -109 -25 -62 -20 -86 -15 -86 17 0 22 90 106 140 130 64 31 93 29
124 -8z m2594 -30 c2 -21 -10 -38 -62 -86 -105 -99 -223 -144 -431 -165 -178
-17 -300 7 -282 57 10 26 164 133 224 155 141 53 369 85 503 70 39 -4 45 -8
48 -31z m-673 3 c-6 -5 -33 -25 -62 -46 -29 -20 -73 -55 -100 -76 -26 -22 -56
-40 -66 -40 -30 0 -151 72 -136 80 8 4 86 24 174 45 88 20 162 38 164 41 2 2
11 4 20 4 9 0 11 -3 6 -8z m-3821 -37 c27 -10 85 -38 128 -62 71 -40 79 -48
76 -71 -3 -25 -11 -29 -88 -51 -126 -35 -310 -34 -433 3 -147 44 -250 103
-245 140 3 23 49 39 168 55 104 15 336 7 394 -14z m2638 -42 c54 -52 50 -67
-27 -105 l-64 -32 -76 24 c-124 39 -127 72 -9 100 38 9 83 24 99 33 17 9 32
16 35 17 2 0 21 -17 42 -37z m621 -37 c42 -8 110 -31 151 -50 100 -46 102 -65
14 -105 -267 -120 -509 -132 -701 -34 -72 36 -64 57 43 110 162 79 340 108
493 79z m-2134 -21 c39 -8 107 -31 151 -51 68 -31 80 -41 80 -61 0 -19 -10
-28 -45 -43 -104 -45 -164 -54 -335 -55 -186 0 -257 14 -402 82 -117 54 -115
78 12 112 44 12 115 26 157 31 102 11 292 4 382 -15z m921 -25 c105 -13 286
-61 341 -91 29 -15 23 -46 -13 -65 -110 -57 -282 -90 -417 -81 -111 8 -188 28
-281 75 -90 45 -103 72 -46 96 76 31 229 68 316 75 9 0 54 -4 100 -9z"></path>
</g>
</svg>